<svg id="Layer_1" xmlns="http://www.w3.org/2000/svg" viewBox="0 0 150 150"><style>.st0{fill:#fff}.st1{fill:none}.st2{fill:#ff5800}</style><circle class="st0" cx="75" cy="75" r="75"/><circle class="st1" cx="275.1" cy="275.1" r="2"/><circle class="st1" cx="269.1" cy="271.7" r="2"/><path class="st2" d="M45.8 71h57.7l-3-14.1H79.8c4.7-1.9 7.9-6.4 7.9-11.8 0-7-5.7-12.7-12.7-12.7s-12.7 5.7-12.7 12.7c0 5.3 3.3 9.9 7.9 11.8H48.5L45.8 71zm22.5-25.8a6.7 6.7 0 1 1 13.4 0 6.7 6.7 0 0 1-13.4 0zM104.3 75H45l-7.5 38.5h75z"/></svg>